<svg width="30" height="30" viewBox="0 0 30 30" fill="none" xmlns="http://www.w3.org/2000/svg">
<g clip-path="url(#clip0_101_279)">
<path d="M6.72428 30H10.3045L4.65527 26.3793L0.0117188 23.6659C0.214512 27.1928 3.14754 30 6.72428 30Z" fill="#FDE494"/>
<path d="M19.6552 27.931L15.6118 26.8966H6.72416C4.72775 26.8966 3.10348 25.2723 3.10348 23.2759V21.291L1.55174 19.6257L0 19.9001V23.2758C0 23.4068 0.00421875 23.5368 0.0116016 23.6659L10.3044 30H22.5369L19.6552 27.931Z" fill="#FEA150"/>
<path d="M25.8782 25.7894C25.2194 26.4713 24.2966 26.8965 23.2758 26.8965H15.6118L22.5368 30H23.2758C25.69 30 27.8107 28.7209 28.9969 26.805L27.4136 25.862L25.8782 25.7894Z" fill="#FF5D4A"/>
<path d="M26.8965 19.1024V23.2759C26.8965 24.2516 26.5078 25.1378 25.8782 25.7896L28.9969 26.8052C29.6325 25.7786 30 24.5695 30 23.2759V19.5959L28.3947 18.6941L26.8965 19.1024Z" fill="#E45261"/>
<path d="M30 8.74166L28.3474 8.34814L26.8965 9.21686V19.1024L30 19.5959V8.74166Z" fill="#FF4D95"/>
<path d="M29.9999 6.72412C29.9999 3.34719 27.4975 0.544062 24.2498 0.0708008L20.1814 1.76369L18.1199 3.10344H23.2758C25.2722 3.10344 26.8965 4.72772 26.8965 6.72412V9.21676L29.9999 8.74156V6.72412Z" fill="#CB319C"/>
<path d="M18.6172 0L14.7686 1.44352L11.7332 3.10348H18.12L24.2499 0.0707812C23.9318 0.0244336 23.6067 0 23.2759 0H18.6172Z" fill="#8A3293"/>
<path d="M15.0001 23.7931C16.0757 23.7931 17.1067 23.5986 18.0602 23.2435L13.02 20.9556L7.67749 19.8624C9.25472 22.2299 11.9481 23.7931 15.0001 23.7931Z" fill="#FF5D4A"/>
<path d="M19.2863 17.8921C18.3557 19.267 16.7816 20.1724 15 20.1724C12.6403 20.1724 10.646 18.5835 10.0273 16.4197L8.63972 15.5525L6.24634 15.8184C6.38421 17.3034 6.89169 18.6829 7.67749 19.8624L18.0602 23.2435C20.3045 22.4077 22.117 20.6796 23.0675 18.4934L21.207 17.5509L19.2863 17.8921Z" fill="#E45261"/>
<path d="M9.82747 15C9.82747 13.7181 10.2973 12.5445 11.0724 11.6398L8.86589 11.3312L6.62468 12.3209C6.35368 13.166 6.20679 14.0661 6.20679 15C6.20679 15.2761 6.22108 15.5487 6.2461 15.8183L10.0272 16.4196C9.89808 15.9682 9.82747 15.4923 9.82747 15Z" fill="#FF4D95"/>
<path d="M23.793 15C23.793 13.1169 23.1978 11.3704 22.1859 9.93809L19.9947 9.62708L17.7437 10.6183C19.2011 11.5342 20.1724 13.1553 20.1724 15C20.1724 16.0705 19.8454 17.0661 19.2863 17.8921L23.0674 18.4934C23.5332 17.4219 23.793 16.241 23.793 15Z" fill="#FF4D95"/>
<path d="M15 9.82759C16.0074 9.82759 16.9477 10.1182 17.7437 10.6183L22.186 9.9381C20.5925 7.68265 17.9655 6.20691 15 6.20691C11.0853 6.20691 7.76048 8.77853 6.62476 12.3209L11.0725 11.6398C12.0218 10.5318 13.4298 9.82759 15 9.82759Z" fill="#CB319C"/>
<path d="M23.2757 8.79316C24.4166 8.79316 25.3447 7.86504 25.3447 6.72422C25.3447 5.5834 24.4166 4.65527 23.2757 4.65527C22.1349 4.65527 21.2068 5.5834 21.2068 6.72422C21.2068 7.86504 22.1349 8.79316 23.2757 8.79316Z" fill="#CB319C"/>
<path d="M3.10348 18.3729L1.60957 17.6278L0 17.3623V19.9002L3.10348 21.291V18.3729Z" fill="#FF5D4A"/>
<path d="M0 14.8251V17.3623L3.10348 18.3729V15.3186L1.49098 14.7389L0 14.8251Z" fill="#E45261"/>
<path d="M3.10348 12.8601L1.50873 12.8457L0 13.3354V14.8251L3.10348 15.3186V12.8601Z" fill="#FF4D95"/>
<path d="M3.10348 10.5326L1.45963 10.6994L0 12.068V13.3353L3.10348 12.8601V10.5326Z" fill="#CB319C"/>
<path d="M0 12.0681L3.10348 10.5327V6.9939L1.2832 7.16798L0 8.39306V12.0681Z" fill="#8A3293"/>
<path d="M12.0152 0L4.93395 2.7235L0.0812695 5.67938C0.0279492 6.01998 0 6.36885 0 6.72416V8.39303L3.10348 6.99393V6.7241C3.10348 4.7277 4.72775 3.10342 6.72416 3.10342H11.7332L18.6171 0H12.0152Z" fill="#523494"/>
<path d="M6.72419 0C3.37181 0 0.584678 2.46609 0.0812988 5.67938L12.0152 0H6.72419Z" fill="#2D2D87"/>
</g>
<defs>
<clipPath id="clip0_101_279">
<rect width="30" height="30" fill="white"/>
</clipPath>
</defs>
</svg>
